<svg id="圖層_1" data-name="圖層 1" xmlns="http://www.w3.org/2000/svg" viewBox="0 0 115 146.5">
  <title>ba3新代理商登入頁</title>
  <g>
    <path d="M57.48,146.5a2.25,2.25,0,0,1-1.49-.37L24.27,127.88C9,119-.36,101.82,0,83.21l2.24-64a3.21,3.21,0,0,1,3-3H30.61L56,.56a2.26,2.26,0,0,1,3,0L84.36,16.19h25.37a2.94,2.94,0,0,1,3,3l2.24,64c.74,18.61-8.59,35.74-24.26,44.67L59,146.13A2.86,2.86,0,0,1,57.48,146.5ZM7.85,22.15,6,83.21c-.37,16.38,7.47,31.64,21.27,39.46l30.23,17.5,30.23-17.5c13.44-7.82,21.65-23.08,21.28-39.46l-2.24-61.06H83.24a2.28,2.28,0,0,1-1.5-.37L57.11,6.89,32.48,21.78c0,.37-.75.37-1.12.37Z" fill="#fff"/>
    <path d="M67.56,56a10.45,10.45,0,0,0-20.9,0V67.57h20.9Z" fill="#fff"/>
    <path d="M38.45,92.14l19,8.19,18.66-8.19v-19H38.45Zm16-7.81a3,3,0,0,1,6,0v2.23a3,3,0,0,1-6,0Z" fill="#fff"/>
    <path d="M99.28,33a3.2,3.2,0,0,0-3-3H79.5L58.6,17.68a4.1,4.1,0,0,0-3,0L35.09,30.34H18.3a2.88,2.88,0,0,0-3,2.61L13.82,83.58C13.45,97,20.16,109.64,31,116l24.63,14.52a3.19,3.19,0,0,0,3,0L83.24,116c11.19-6.33,17.91-19,17.16-32.39ZM82.12,94a2.8,2.8,0,0,1-1.87,2.6L58.6,105.92c-.37,0-.74.37-1.12.37a1.39,1.39,0,0,1-1.12-.37L34.72,96.61A2.8,2.8,0,0,1,32.85,94V70.18a3.21,3.21,0,0,1,3-3h5.22V55.66a16.43,16.43,0,0,1,32.85,0V67.57H79.5a3.21,3.21,0,0,1,3,3V94Z" fill="#fff"/>
  </g>
</svg>
