<svg width="18" height="22" viewBox="0 0 18 22" fill="none" xmlns="http://www.w3.org/2000/svg">
<path d="M17.6 6.6L11 0H2.2C1.61652 0 1.05695 0.231785 0.644365 0.644365C0.231785 1.05695 0 1.61652 0 2.2V19.8C0 20.3835 0.231785 20.9431 0.644365 21.3556C1.05695 21.7682 1.61652 22 2.2 22H15.4C15.9835 22 16.5431 21.7682 16.9556 21.3556C17.3682 20.9431 17.6 20.3835 17.6 19.8V6.6ZM5.5 18.7H3.3V8.8H5.5V18.7ZM9.9 18.7H7.7V12.1H9.9V18.7ZM14.3 18.7H12.1V15.4H14.3V18.7ZM11 7.7H9.9V2.2L15.4 7.7H11Z" fill="white"/>
</svg>
