<svg width="25" height="24" viewBox="0 0 25 24" fill="none" xmlns="http://www.w3.org/2000/svg">
<path d="M24.7175 19.9004L14.5716 1.23003C14.3696 0.857938 14.0709 0.547257 13.7071 0.330765C13.3433 0.114274 12.9278 0 12.5044 0C12.081 0 11.6655 0.114274 11.3017 0.330765C10.9378 0.547257 10.6392 0.857938 10.4372 1.23003L0.298546 19.9004C0.0980536 20.2594 -0.00482317 20.6646 0.000173726 21.0758C0.00517062 21.4869 0.117867 21.8896 0.327024 22.2436C0.536181 22.5976 0.834491 22.8906 1.19221 23.0934C1.54992 23.2962 1.95454 23.4016 2.36572 23.3992H22.6503C23.0573 23.3988 23.4573 23.2928 23.811 23.0915C24.1648 22.8903 24.4602 22.6007 24.6686 22.251C24.8769 21.9014 24.9909 21.5037 24.9995 21.0968C25.0081 20.6899 24.9109 20.2877 24.7175 19.9296V19.9004ZM11.5694 5.86839C11.5694 5.59718 11.6771 5.33707 11.8689 5.14529C12.0607 4.95351 12.3208 4.84576 12.592 4.84576C12.8633 4.84576 13.1234 4.95351 13.3151 5.14529C13.5069 5.33707 13.6147 5.59718 13.6147 5.86839V14.6338C13.6147 14.905 13.5069 15.1651 13.3151 15.3569C13.1234 15.5487 12.8633 15.6564 12.592 15.6564C12.3208 15.6564 12.0607 15.5487 11.8689 15.3569C11.6771 15.1651 11.5694 14.905 11.5694 14.6338V5.86839ZM12.592 20.3678C12.332 20.3678 12.0778 20.2907 11.8616 20.1463C11.6453 20.0018 11.4768 19.7964 11.3773 19.5562C11.2778 19.3159 11.2518 19.0516 11.3025 18.7965C11.3532 18.5415 11.4784 18.3072 11.6623 18.1233C11.8462 17.9394 12.0805 17.8142 12.3355 17.7635C12.5906 17.7128 12.8549 17.7388 13.0952 17.8383C13.3354 17.9378 13.5408 18.1063 13.6853 18.3226C13.8297 18.5388 13.9068 18.793 13.9068 19.053C13.9068 19.2257 13.8728 19.3967 13.8068 19.5562C13.7407 19.7157 13.6438 19.8607 13.5217 19.9827C13.3997 20.1048 13.2547 20.2017 13.0952 20.2678C12.9357 20.3338 12.7647 20.3678 12.592 20.3678Z" fill="#F8C630"/>
</svg>
