<svg width="25" height="25" viewBox="0 0 25 25" fill="none" xmlns="http://www.w3.org/2000/svg">
<path d="M22.0238 25H2.97619C1.28968 25 0 23.7103 0 22.0238V2.97619C0 1.28968 1.28968 0 2.97619 0H22.0238C23.7103 0 25 1.28968 25 2.97619V22.0238C25 23.7103 23.7103 25 22.0238 25Z" fill="#A1B630"/>
<path fill-rule="evenodd" clip-rule="evenodd" d="M5 18C5 18 4 18 4 17C4 16 5 13 10 13C15 13 16 16 16 17C16 18 15 18 15 18H5ZM10 12C10.7956 12 11.5587 11.6839 12.1213 11.1213C12.6839 10.5587 13 9.79565 13 9C13 8.20435 12.6839 7.44129 12.1213 6.87868C11.5587 6.31607 10.7956 6 10 6C9.20435 6 8.44129 6.31607 7.87868 6.87868C7.31607 7.44129 7 8.20435 7 9C7 9.79565 7.31607 10.5587 7.87868 11.1213C8.44129 11.6839 9.20435 12 10 12ZM19.854 9.146C19.9006 9.19245 19.9375 9.24762 19.9627 9.30837C19.9879 9.36911 20.0009 9.43423 20.0009 9.5C20.0009 9.56577 19.9879 9.63089 19.9627 9.69163C19.9375 9.75238 19.9006 9.80755 19.854 9.854L16.854 12.854C16.8076 12.9006 16.7524 12.9375 16.6916 12.9627C16.6309 12.9879 16.5658 13.0009 16.5 13.0009C16.4342 13.0009 16.3691 12.9879 16.3084 12.9627C16.2476 12.9375 16.1924 12.9006 16.146 12.854L14.646 11.354C14.5521 11.2601 14.4994 11.1328 14.4994 11C14.4994 10.8672 14.5521 10.7399 14.646 10.646C14.7399 10.5521 14.8672 10.4994 15 10.4994C15.1328 10.4994 15.2601 10.5521 15.354 10.646L16.5 11.793L19.146 9.146C19.1924 9.09944 19.2476 9.06249 19.3084 9.03729C19.3691 9.01208 19.4342 8.99911 19.5 8.99911C19.5658 8.99911 19.6309 9.01208 19.6916 9.03729C19.7524 9.06249 19.8076 9.09944 19.854 9.146Z" fill="white"/>
</svg>
