<svg width="25" height="25" viewBox="0 0 25 25" fill="none" xmlns="http://www.w3.org/2000/svg">
<path d="M22.0238 25H2.97619C1.28968 25 0 23.7103 0 22.0238V2.97619C0 1.28968 1.28968 0 2.97619 0H22.0238C23.7103 0 25 1.28968 25 2.97619V22.0238C25 23.7103 23.7103 25 22.0238 25Z" fill="#9A4C95"/>
<path d="M18.25 20H7.75C7.26693 20 6.85449 19.8047 6.5127 19.4141C6.1709 19.0234 6 18.5521 6 18V8C6 7.44792 6.1709 6.97656 6.5127 6.58594C6.85449 6.19531 7.26693 6 7.75 6H8.625V5C8.625 4.71875 8.70931 4.48177 8.87793 4.28906C9.04655 4.09635 9.25391 4 9.5 4C9.74609 4 9.95345 4.09635 10.1221 4.28906C10.2907 4.48177 10.375 4.71875 10.375 5V6H12.125V5C12.125 4.71875 12.2093 4.48177 12.3779 4.28906C12.5465 4.09635 12.7516 4 12.9932 4C13.2347 4 13.4421 4.09635 13.6152 4.28906C13.7884 4.48177 13.875 4.71875 13.875 5V6H15.625V5C15.625 4.71875 15.7093 4.48177 15.8779 4.28906C16.0465 4.09635 16.2516 4 16.4932 4C16.7347 4 16.9421 4.09635 17.1152 4.28906C17.2884 4.48177 17.375 4.71875 17.375 5V6H18.25C18.7331 6 19.1455 6.19531 19.4873 6.58594C19.8291 6.97656 20 7.44792 20 8V18C20 18.5521 19.8291 19.0234 19.4873 19.4141C19.1455 19.8047 18.7331 20 18.25 20ZM18.25 8H17.375C17.375 8.27083 17.2907 8.50521 17.1221 8.70312C16.9535 8.90104 16.7484 9 16.5068 9C16.2653 9 16.0579 8.90104 15.8848 8.70312C15.7116 8.50521 15.625 8.27083 15.625 8H13.875C13.875 8.27083 13.7907 8.50521 13.6221 8.70312C13.4535 8.90104 13.2484 9 13.0068 9C12.7653 9 12.5579 8.90104 12.3848 8.70312C12.2116 8.50521 12.125 8.27083 12.125 8H10.375C10.375 8.27083 10.2907 8.50521 10.1221 8.70312C9.95345 8.90104 9.74837 9 9.50684 9C9.2653 9 9.05794 8.90104 8.88477 8.70312C8.71159 8.50521 8.625 8.27083 8.625 8H7.75V18H18.25V8ZM9.0625 10H16.9375C17.056 10 17.1585 10.0495 17.2451 10.1484C17.3317 10.2474 17.375 10.3646 17.375 10.5C17.375 10.6354 17.3317 10.7526 17.2451 10.8516C17.1585 10.9505 17.056 11 16.9375 11H9.0625C8.94401 11 8.84147 10.9505 8.75488 10.8516C8.66829 10.7526 8.625 10.6354 8.625 10.5C8.625 10.3646 8.66829 10.2474 8.75488 10.1484C8.84147 10.0495 8.94401 10 9.0625 10ZM9.0625 13H16.9375C17.056 13 17.1585 13.0495 17.2451 13.1484C17.3317 13.2474 17.375 13.3646 17.375 13.5C17.375 13.6354 17.3317 13.7526 17.2451 13.8516C17.1585 13.9505 17.056 14 16.9375 14H9.0625C8.94401 14 8.84147 13.9505 8.75488 13.8516C8.66829 13.7526 8.625 13.6354 8.625 13.5C8.625 13.3646 8.66829 13.2474 8.75488 13.1484C8.84147 13.0495 8.94401 13 9.0625 13ZM9.0625 16H16.9375C17.056 16 17.1585 16.0495 17.2451 16.1484C17.3317 16.2474 17.375 16.3646 17.375 16.5C17.375 16.6354 17.3317 16.7526 17.2451 16.8516C17.1585 16.9505 17.056 17 16.9375 17H9.0625C8.94401 17 8.84147 16.9505 8.75488 16.8516C8.66829 16.7526 8.625 16.6354 8.625 16.5C8.625 16.3646 8.66829 16.2474 8.75488 16.1484C8.84147 16.0495 8.94401 16 9.0625 16Z" fill="white"/>
</svg>
