<svg width="16" height="20" viewBox="0 0 16 20" fill="none" xmlns="http://www.w3.org/2000/svg">
<path d="M13.1 6.59998H12.2V4.70001C12.2 2.10001 10.1 0 7.5 0C4.9 0 2.8 2.10001 2.8 4.70001V6.59998H1.9C0.899998 6.59998 0 7.4 0 8.5V17.9C0 18.9 0.799998 19.8 1.9 19.8H13.2C14.2 19.8 15.1 19 15.1 17.9V8.5C15 7.5 14.1 6.59998 13.1 6.59998ZM7.4 15.1C6.4 15.1 5.5 14.3 5.5 13.2C5.5 12.2 6.3 11.3 7.4 11.3C8.5 11.3 9.3 12.1 9.3 13.2C9.3 14.3 8.5 15.1 7.4 15.1ZM10.4 6.59998H4.6V4.70001C4.6 3.10001 5.9 1.79999 7.5 1.79999C9.1 1.79999 10.4 3.10001 10.4 4.70001V6.59998Z" fill="white"/>
</svg>
