<svg width="22" height="18" viewBox="0 0 22 18" fill="none" xmlns="http://www.w3.org/2000/svg">
<path d="M21.2143 0H0.785714C0.351116 0 0 0.351116 0 0.785714V4.71429H22V0.785714C22 0.351116 21.6489 0 21.2143 0ZM0 16.5C0 16.9346 0.351116 17.2857 0.785714 17.2857H21.2143C21.6489 17.2857 22 16.9346 22 16.5V6.875H0V16.5ZM14.2165 11.9821C14.2165 11.8741 14.3049 11.7857 14.4129 11.7857H18.4643C18.5723 11.7857 18.6607 11.8741 18.6607 11.9821V13.75C18.6607 13.858 18.5723 13.9464 18.4643 13.9464H14.4129C14.3049 13.9464 14.2165 13.858 14.2165 13.75V11.9821Z" fill="white"/>
</svg>
