<svg width="20" height="18" viewBox="0 0 20 18" fill="none" xmlns="http://www.w3.org/2000/svg">
<path d="M9.90828 11.548C10.5896 11.548 11.243 11.2773 11.7248 10.7956C12.2066 10.3138 12.4772 9.66035 12.4772 8.97902C12.4772 8.90379 12.4738 8.82924 12.4674 8.75561L9.68487 11.5381C9.7585 11.5445 9.83282 11.548 9.90828 11.548ZM18.4116 1.03266L17.4317 0.0537025C17.3973 0.0193161 17.3506 0 17.302 0C17.2533 0 17.2067 0.0193161 17.1723 0.0537025L14.6648 2.56188C13.2815 1.85496 11.7266 1.5015 10 1.5015C5.5915 1.5015 2.30231 3.79751 0.132451 8.38953C0.0452336 8.57422 0 8.77593 0 8.98017C0 9.18441 0.0452336 9.38612 0.132451 9.5708C0.999477 11.3971 2.0435 12.8608 3.26452 13.9621L0.837999 16.3877C0.803613 16.4221 0.784296 16.4688 0.784296 16.5174C0.784296 16.5661 0.803613 16.6127 0.837999 16.6472L1.81719 17.6263C1.8516 17.6607 1.89825 17.68 1.9469 17.68C1.99554 17.68 2.0422 17.6607 2.07661 17.6263L18.4116 1.29231C18.4286 1.27527 18.4421 1.25503 18.4514 1.23275C18.4606 1.21048 18.4654 1.1866 18.4654 1.16249C18.4654 1.13837 18.4606 1.11449 18.4514 1.09222C18.4421 1.06994 18.4286 1.0497 18.4116 1.03266ZM5.87134 8.97902C5.87127 8.28174 6.05181 7.59634 6.39538 6.98958C6.73894 6.38281 7.2338 5.87538 7.83176 5.51672C8.42972 5.15805 9.11038 4.96039 9.80744 4.94297C10.5045 4.92555 11.1942 5.08898 11.8093 5.41733L10.6941 6.53254C10.2444 6.38853 9.76363 6.37119 9.30467 6.48241C8.8457 6.59364 8.42625 6.82913 8.09232 7.16306C7.75839 7.49699 7.5229 7.91645 7.41167 8.37541C7.30045 8.83437 7.31779 9.3151 7.4618 9.76485L6.34659 10.8801C6.03364 10.2953 5.87036 9.64222 5.87134 8.97902V8.97902Z" fill="#B3B3B3"/>
<path d="M19.8675 8.3872C19.0602 6.68679 18.0992 5.30023 16.9846 4.22754L13.6784 7.53393C13.9571 8.26245 14.0189 9.05609 13.8563 9.81895C13.6937 10.5818 13.3136 11.2813 12.7621 11.8328C12.2105 12.3844 11.5111 12.7644 10.7482 12.927C9.98533 13.0896 9.19169 13.0279 8.46318 12.7492L5.65887 15.5535C6.95987 16.1555 8.4069 16.4565 9.99997 16.4565C14.4085 16.4565 17.6977 14.1605 19.8675 9.56846C19.9548 9.38378 20 9.18208 20 8.97783C20 8.77359 19.9548 8.57188 19.8675 8.3872V8.3872Z" fill="#B3B3B3"/>
</svg>
