<svg width="24" height="21" viewBox="0 0 24 21" fill="none" xmlns="http://www.w3.org/2000/svg">
<path d="M0 15.1072H23.5V16.7857H0V15.1072Z" fill="white"/>
<path d="M0 18.4642H23.5V20.1428H0V18.4642Z" fill="white"/>
<path d="M18.4643 5.03577C18.1323 5.03577 17.8078 5.13421 17.5318 5.31866C17.2557 5.5031 17.0406 5.76526 16.9135 6.07198C16.7865 6.3787 16.7533 6.7162 16.818 7.04181C16.8828 7.36742 17.0427 7.66651 17.2774 7.90127C17.5122 8.13602 17.8113 8.29589 18.1369 8.36066C18.4625 8.42542 18.8 8.39218 19.1067 8.26514C19.4134 8.13809 19.6756 7.92294 19.86 7.6469C20.0445 7.37086 20.1429 7.04633 20.1429 6.71434C20.1429 6.26915 19.9661 5.8422 19.6513 5.52741C19.3365 5.21262 18.9095 5.03577 18.4643 5.03577Z" fill="white"/>
<path d="M11.75 10.0715C11.086 10.0715 10.4369 9.87457 9.88484 9.50568C9.33276 9.1368 8.90247 8.61248 8.64837 7.99905C8.39428 7.38561 8.32779 6.7106 8.45733 6.05938C8.58687 5.40815 8.9066 4.80997 9.37611 4.34046C9.84561 3.87096 10.4438 3.55122 11.095 3.42169C11.7462 3.29215 12.4213 3.35863 13.0347 3.61273C13.6481 3.86682 14.1724 4.29711 14.5413 4.84919C14.9102 5.40127 15.1071 6.05034 15.1071 6.71432C15.106 7.60435 14.7519 8.45761 14.1226 9.08695C13.4933 9.7163 12.64 10.0704 11.75 10.0715ZM11.75 5.03575C11.418 5.03575 11.0934 5.1342 10.8174 5.31864C10.5414 5.50309 10.3262 5.76524 10.1992 6.07196C10.0721 6.37868 10.0389 6.71618 10.1036 7.0418C10.1684 7.36741 10.3283 7.6665 10.563 7.90125C10.7978 8.136 11.0969 8.29587 11.4225 8.36064C11.7481 8.42541 12.0856 8.39217 12.3923 8.26512C12.699 8.13807 12.9612 7.92293 13.1456 7.64689C13.3301 7.37085 13.4285 7.04631 13.4285 6.71432C13.4281 6.26927 13.2511 5.84258 12.9364 5.52788C12.6217 5.21319 12.195 5.0362 11.75 5.03575Z" fill="white"/>
<path d="M5.03575 5.03577C4.70376 5.03577 4.37923 5.13421 4.10319 5.31866C3.82715 5.5031 3.612 5.76526 3.48495 6.07198C3.35791 6.3787 3.32466 6.7162 3.38943 7.04181C3.4542 7.36742 3.61407 7.66651 3.84882 7.90127C4.08357 8.13602 4.38267 8.29589 4.70828 8.36066C5.03389 8.42542 5.37139 8.39218 5.67811 8.26514C5.98483 8.13809 6.24699 7.92294 6.43143 7.6469C6.61588 7.37086 6.71432 7.04633 6.71432 6.71434C6.71432 6.26915 6.53747 5.8422 6.22268 5.52741C5.90789 5.21262 5.48094 5.03577 5.03575 5.03577Z" fill="white"/>
<path d="M21.8214 13.4286H1.67857C1.23373 13.4275 0.807419 13.2503 0.492866 12.9357C0.178313 12.6212 0.00110796 12.1948 0 11.75V1.67857C0.00110796 1.23373 0.178313 0.807419 0.492866 0.492866C0.807419 0.178313 1.23373 0.00110796 1.67857 0H21.8214C22.2663 0.00110796 22.6926 0.178313 23.0071 0.492866C23.3217 0.807419 23.4989 1.23373 23.5 1.67857V11.75C23.4993 12.195 23.3223 12.6215 23.0076 12.9362C22.693 13.2508 22.2664 13.4279 21.8214 13.4286ZM21.8214 1.67857H1.67857V11.75H21.8214V1.67857Z" fill="white"/>
</svg>
