<?xml version="1.0" encoding="utf-8"?>
<!-- Generator: Adobe Illustrator 22.1.0, SVG Export Plug-In . SVG Version: 6.00 Build 0)  -->
<svg version="1.1" id="圖層_1" xmlns="http://www.w3.org/2000/svg" xmlns:xlink="http://www.w3.org/1999/xlink" x="0px" y="0px"
	 width="18px" height="18px" viewBox="0 0 18 18" style="enable-background:new 0 0 18 18;" xml:space="preserve">
<style type="text/css">
	.st0{fill:#1D1A31;}
</style>
<path class="st0" d="M8,5.7v3.7c0,0.4,0.2,0.7,0.5,0.9l3.1,1.9c0.4,0.2,0.8,0.1,1-0.3c0.2-0.4,0.1-0.8-0.3-1L9.5,9.1V5.7
	C9.5,5.3,9.1,5,8.7,5S8,5.3,8,5.7L8,5.7z"/>
<path class="st0" d="M18,6.5V1.2c0-0.4-0.5-0.7-0.9-0.3l-1.8,1.8C14.4,1.7,13.3,1,12,0.5S9.5-0.1,8.1,0C4,0.4,0.5,3.8,0,8
	c-0.2,2.3,0.4,4.7,1.9,6.5c1.5,1.8,3.6,3,6,3.3c2.3,0.3,4.7-0.4,6.6-1.8c1.9-1.4,3.1-3.6,3.4-5.9C18,9.5,17.5,9,16.9,9
	c-0.5,0-0.9,0.4-1,0.9c-0.4,3.5-3.4,6.2-7,6.1C5.2,15.9,2,12.8,2,9.1C1.9,5.2,5.1,2,9,2c1.9,0,3.7,0.8,4.9,2.1l-2.1,2.1
	C11.5,6.5,11.7,7,12.2,7h5.3C17.8,7,18,6.8,18,6.5z"/>
</svg>
