<svg width="25" height="25" viewBox="0 0 25 25" fill="none" xmlns="http://www.w3.org/2000/svg">
<path d="M22.0238 25H2.97619C1.28968 25 0 23.7103 0 22.0238V2.97619C0 1.28968 1.28968 0 2.97619 0H22.0238C23.7103 0 25 1.28968 25 2.97619V22.0238C25 23.6111 23.7103 25 22.0238 25Z" fill="#3991D6"/>
<path d="M19.2222 4.79935H15.4889C14.9556 3.35929 13.4444 2.63928 12.1111 3.1793C11.3111 3.44931 10.7778 4.07932 10.5111 4.79935H6.77778C6.33333 4.79935 5.88889 4.97936 5.53334 5.33938C5.17778 5.69939 5 6.14941 5 6.59942V19.1999C5 19.6499 5.17778 20.1 5.53334 20.46C5.88889 20.82 6.33333 21 6.77778 21H19.2222C19.6667 21 20.1111 20.82 20.4667 20.46C20.8222 20.1 21 19.6499 21 19.1999V6.59942C21 6.14941 20.8222 5.69939 20.4667 5.33938C20.2 4.97936 19.7556 4.79935 19.2222 4.79935ZM13 4.79935C13.2667 4.79935 13.4444 4.88934 13.6222 5.06935C13.8 5.24936 13.8889 5.42938 13.8889 5.69939C13.8889 5.9694 13.8 6.14942 13.6222 6.32942C13.4444 6.50943 13.2667 6.59942 13 6.59942C12.7333 6.59942 12.5556 6.50943 12.3778 6.32942C12.2 6.14942 12.1111 5.9694 12.1111 5.69939C12.1111 5.42938 12.2 5.24936 12.3778 5.06935C12.5556 4.88934 12.8222 4.79935 13 4.79935ZM8.55556 8.3995H17.4444V6.59942H19.2222V19.1999H6.77778V6.59942H8.55556V8.3995ZM17.4444 11.9996H8.55556V10.1996H17.4444V11.9996ZM15.6667 15.5998H8.55556V13.7997H15.6667V15.5998Z" fill="white"/>
</svg>
