<svg width="9" height="16" viewBox="0 0 9 16" fill="none" xmlns="http://www.w3.org/2000/svg">
<path fill-rule="evenodd" clip-rule="evenodd" d="M8.25953 0.314735C8.35929 0.41425 8.43845 0.53247 8.49246 0.662623C8.54646 0.792776 8.57426 0.932305 8.57426 1.07322C8.57426 1.21413 8.54646 1.35366 8.49246 1.48381C8.43845 1.61397 8.35929 1.73219 8.25953 1.8317L2.58804 7.50104L8.25953 13.1704C8.35913 13.27 8.43814 13.3882 8.49205 13.5184C8.54596 13.6485 8.5737 13.788 8.5737 13.9289C8.5737 14.0697 8.54596 14.2092 8.49205 14.3394C8.43814 14.4695 8.35913 14.5877 8.25953 14.6874C8.15992 14.787 8.04167 14.866 7.91153 14.9199C7.78139 14.9738 7.64191 15.0015 7.50104 15.0015C7.36018 15.0015 7.2207 14.9738 7.09056 14.9199C6.96041 14.866 6.84217 14.787 6.74256 14.6874L0.314736 8.25953C0.214969 8.16001 0.135815 8.04179 0.0818076 7.91164C0.0278 7.78149 0 7.64196 0 7.50104C0 7.36013 0.0278 7.2206 0.0818076 7.09045C0.135815 6.96029 0.214969 6.84207 0.314736 6.74256L6.74256 0.314735C6.84208 0.214968 6.9603 0.135814 7.09045 0.0818066C7.2206 0.027799 7.36013 0 7.50104 0C7.64196 0 7.78149 0.027799 7.91164 0.0818066C8.04179 0.135814 8.16001 0.214968 8.25953 0.314735Z" fill="white"/>
</svg>
