<svg width="25" height="25" viewBox="0 0 25 25" fill="none" xmlns="http://www.w3.org/2000/svg">
<path d="M22.0238 25H2.97619C1.28968 25 0 23.7103 0 22.0238V2.97619C0 1.28968 1.28968 0 2.97619 0H22.0238C23.7103 0 25 1.28968 25 2.97619V22.0238C25 23.7103 23.7103 25 22.0238 25Z" fill="#3991D6"/>
<path d="M18.5 5H11C10.1727 5 9.5 5.67275 9.5 6.5V9.5H6.5C5.67275 9.5 5 10.1727 5 11V18.5C5 19.3273 5.67275 20 6.5 20H14C14.8273 20 15.5 19.3273 15.5 18.5V15.5H18.5C19.3273 15.5 20 14.8273 20 14V6.5C20 5.67275 19.3273 5 18.5 5ZM6.5 18.5V11H14L14.0015 18.5H6.5ZM18.5 14H15.5V11C15.5 10.1727 14.8273 9.5 14 9.5H11V6.5H18.5V14Z" fill="white"/>
<path d="M7.99995 12.5H12.5V14H7.99995V12.5ZM7.99995 15.5H12.5V17H7.99995V15.5Z" fill="white"/>
</svg>
