<svg width="15" height="15" viewBox="0 0 15 15" fill="none" xmlns="http://www.w3.org/2000/svg">
<path d="M10.7 3.82353C10.4 3.82353 10.2 3.72549 9.99999 3.52941C9.79999 3.33333 9.7 3.13726 9.7 2.84314V0.980392C9.7 0.686274 9.79999 0.490196 9.99999 0.294118C10.2 0.0980394 10.4 0 10.7 0C11 0 11.2 0.0980394 11.4 0.294118C11.6 0.490196 11.7 0.686274 11.7 0.980392V2.84314C11.7 3.13726 11.6 3.33333 11.4 3.52941C11.2 3.72549 11 3.72549 10.7 3.82353ZM4.1 3.82353C3.8 3.82353 3.6 3.72549 3.5 3.52941C3.3 3.33333 3.2 3.13726 3.2 2.84314V0.980392C3.2 0.686274 3.3 0.490196 3.5 0.294118C3.7 0.0980394 3.9 0 4.1 0C4.4 0 4.6 0.0980394 4.8 0.294118C5 0.490196 5.1 0.686274 5.1 0.980392V2.84314C5.1 3.13726 5 3.33333 4.8 3.52941C4.6 3.72549 4.4 3.72549 4.1 3.82353ZM14 1.96078C14.3 1.96078 14.5 2.05882 14.7 2.2549C14.9 2.45098 15 2.64706 15 2.94118V14.0196C15 14.3137 14.9 14.5098 14.7 14.7059C14.5 14.902 14.3 15 14 15H0.900002C0.600002 15 0.399995 14.902 0.299995 14.7059C0.0999954 14.5098 0 14.3137 0 14.0196V2.84314C0 2.54902 0.0999954 2.35294 0.299995 2.15686C0.499995 1.96079 0.700002 1.86275 0.900002 1.86275H2.3V2.7451C2.3 3.03922 2.3 3.23529 2.4 3.43137C2.5 3.62745 2.6 3.82353 2.8 4.01961C3 4.21569 3.2 4.31373 3.4 4.41176C3.6 4.5098 3.9 4.60784 4.1 4.60784C4.4 4.60784 4.6 4.5098 4.8 4.41176C5 4.31373 5.2 4.21569 5.4 4.01961C5.6 3.82353 5.7 3.62745 5.8 3.43137C5.9 3.23529 5.9 2.94118 5.9 2.7451V1.86275H8.7V2.7451C8.7 3.03922 8.8 3.23529 8.9 3.43137C9 3.62745 9.1 3.82353 9.3 4.01961C9.5 4.21569 9.7 4.31373 9.9 4.41176C10.1 4.5098 10.4 4.60784 10.6 4.60784C10.8 4.60784 11.1 4.5098 11.3 4.41176C11.5 4.31373 11.7 4.21569 11.9 4.01961C12.1 3.82353 12.2 3.62745 12.3 3.43137C12.4 3.23529 12.4 2.94118 12.4 2.7451V1.86275H14V1.96078ZM13.1 7.64706C13.1 7.54902 13 7.45098 12.9 7.45098H2.1C2 7.45098 1.9 7.54902 1.9 7.64706V12.7451C1.9 12.9412 2 12.9412 2.1 12.9412H12.9C13.1 12.9412 13.1 12.8431 13.1 12.7451V7.64706Z" fill="#1D1A31"/>
</svg>
