<svg width="25" height="25" viewBox="0 0 25 25" fill="none" xmlns="http://www.w3.org/2000/svg">
<path d="M22.0238 25H2.97619C1.28968 25 0 23.7103 0 22.0238V2.97619C0 1.28968 1.28968 0 2.97619 0H22.0238C23.7103 0 25 1.28968 25 2.97619V22.0238C25 23.7103 23.7103 25 22.0238 25Z" fill="#D33138"/>
<path d="M17.6588 19.9404H7.3413C6.74607 19.9404 6.15085 19.742 5.75403 19.246C5.3572 18.8492 5.05957 18.2539 5.05957 17.6587V7.44044C5.05957 6.8452 5.258 6.24996 5.75403 5.85314C6.15085 5.45631 6.74607 5.15869 7.3413 5.15869H12.5C12.8969 5.15869 13.1945 5.45631 13.1945 5.85314C13.1945 6.24996 12.8969 6.54758 12.5 6.54758H7.3413C7.14289 6.54758 6.94448 6.64679 6.84527 6.74599C6.74607 6.8452 6.64685 7.04361 6.64685 7.24202V17.5595C6.64685 17.7579 6.74607 17.9563 6.84527 18.0555C6.94448 18.1547 7.14289 18.2539 7.3413 18.2539H17.6588C17.8572 18.2539 18.0556 18.1547 18.1548 18.0555C18.254 17.9563 18.3532 17.7579 18.3532 17.5595V12.5992C18.3532 12.2023 18.6508 11.9047 19.0476 11.9047C19.4445 11.9047 19.7421 12.2023 19.7421 12.5992V17.7579C19.7421 18.3531 19.5437 18.9484 19.0476 19.3452C18.8492 19.742 18.254 19.9404 17.6588 19.9404Z" fill="white"/>
<path d="M18.0555 4.86114C18.3531 4.56352 18.7499 4.36511 19.1468 4.36511C19.5436 4.36511 19.9404 4.56352 20.238 4.86114C20.5356 5.15876 20.734 5.55559 20.734 5.95241C20.734 6.34924 20.5356 6.74606 20.238 7.04368L13.2936 13.9881L10.3174 14.6826L11.0118 11.7064L18.0555 4.86114Z" fill="white"/>
</svg>
