<svg width="20" height="15" viewBox="0 0 20 15" fill="none" xmlns="http://www.w3.org/2000/svg">
<path d="M7.33929 7.4775C7.33929 8.15883 7.60995 8.81225 8.09172 9.29402C8.57349 9.7758 9.22692 10.0465 9.90825 10.0465C10.5896 10.0465 11.243 9.7758 11.7248 9.29402C12.2065 8.81225 12.4772 8.15883 12.4772 7.4775C12.4772 6.79617 12.2065 6.14274 11.7248 5.66097C11.243 5.1792 10.5896 4.90854 9.90825 4.90854C9.22692 4.90854 8.57349 5.1792 8.09172 5.66097C7.60995 6.14274 7.33929 6.79617 7.33929 7.4775V7.4775ZM19.8675 6.88572C17.6931 2.30518 14.4062 0 9.99999 0C5.59148 0 2.30689 2.30518 0.132451 6.88801C0.0452335 7.0727 0 7.2744 0 7.47864C0 7.68289 0.0452335 7.88459 0.132451 8.06927C2.30689 12.6498 5.59378 14.955 9.99999 14.955C14.4085 14.955 17.6931 12.6498 19.8675 8.06698C20.0442 7.6954 20.0442 7.26418 19.8675 6.88572V6.88572ZM9.90825 11.5144C7.67876 11.5144 5.87132 9.70698 5.87132 7.4775C5.87132 5.24801 7.67876 3.44057 9.90825 3.44057C12.1377 3.44057 13.9452 5.24801 13.9452 7.4775C13.9452 9.70698 12.1377 11.5144 9.90825 11.5144Z" fill="#B3B3B3"/>
</svg>
