<svg width="24" height="18" viewBox="0 0 24 18" fill="none" xmlns="http://www.w3.org/2000/svg">
<path d="M2 0H22C23.1 0 24 1 24 2V16C24 17 23.1 18 22 18H2C1 18 0 17 0 16V2C0 1 1 0 2 0ZM14 3V4H22V3H14ZM14 5V6H22V5H14ZM14 7V8H21V7H14ZM8 10.9C6 10.9 2 12 2 14V15H14V14C14 12 10 10.9 8 10.9ZM8 3C7.2 3 6.4 3.29999 5.9 3.89999C5.3 4.49999 5 5.2 5 6C5 6.8 5.3 7.60001 5.9 8.10001C6.5 8.70001 7.2 9 8 9C8.8 9 9.6 8.70001 10.1 8.10001C10.7 7.50001 11 6.8 11 6C11 5.2 10.7 4.39999 10.1 3.89999C9.6 3.29999 8.8 3 8 3Z" fill="white"/>
</svg>
