<svg width="20" height="20" viewBox="0 0 20 20" fill="none" xmlns="http://www.w3.org/2000/svg">
<path d="M9 13H8.949C8.69731 13 8.45593 12.9 8.27796 12.722C8.09998 12.5441 8 12.3027 8 12.051C8 11.7858 7.89464 11.5314 7.70711 11.3439C7.51957 11.1564 7.26522 11.051 7 11.051C6.73478 11.051 6.48043 11.1564 6.29289 11.3439C6.10536 11.5314 6 11.7858 6 12.051C6 12.8331 6.3107 13.5832 6.86374 14.1363C7.41679 14.6893 8.16688 15 8.949 15H9V16C9 16.2652 9.10536 16.5196 9.29289 16.7071C9.48043 16.8946 9.73478 17 10 17C10.2652 17 10.5196 16.8946 10.7071 16.7071C10.8946 16.5196 11 16.2652 11 16V15C11.7956 15 12.5587 14.6839 13.1213 14.1213C13.6839 13.5587 14 12.7956 14 12C14 11.2044 13.6839 10.4413 13.1213 9.87868C12.5587 9.31607 11.7956 9 11 9V7H11.022C11.562 7 12 7.438 12 7.978C12 8.24322 12.1054 8.49757 12.2929 8.68511C12.4804 8.87264 12.7348 8.978 13 8.978C13.2652 8.978 13.5196 8.87264 13.7071 8.68511C13.8946 8.49757 14 8.24322 14 7.978C14 7.18819 13.6862 6.43072 13.1278 5.87224C12.5693 5.31375 11.8118 5 11.022 5H11V4C11 3.73478 10.8946 3.48043 10.7071 3.29289C10.5196 3.10536 10.2652 3 10 3C9.73478 3 9.48043 3.10536 9.29289 3.29289C9.10536 3.48043 9 3.73478 9 4V5C8.20435 5 7.44129 5.31607 6.87868 5.87868C6.31607 6.44129 6 7.20435 6 8C6 8.79565 6.31607 9.55871 6.87868 10.1213C7.44129 10.6839 8.20435 11 9 11V13ZM11 13V11C11.2652 11 11.5196 11.1054 11.7071 11.2929C11.8946 11.4804 12 11.7348 12 12C12 12.2652 11.8946 12.5196 11.7071 12.7071C11.5196 12.8946 11.2652 13 11 13ZM9 7V9C8.73478 9 8.48043 8.89464 8.29289 8.70711C8.10536 8.51957 8 8.26522 8 8C8 7.73478 8.10536 7.48043 8.29289 7.29289C8.48043 7.10536 8.73478 7 9 7ZM10 20C4.477 20 0 15.523 0 10C0 4.477 4.477 0 10 0C15.523 0 20 4.477 20 10C20 15.523 15.523 20 10 20Z" fill="white"/>
</svg>
