<svg id="圖層_1" data-name="圖層 1" xmlns="http://www.w3.org/2000/svg" viewBox="0 0 25 25"><defs><style>.cls-1{fill:#fff;}</style></defs><path class="cls-1" d="M17.77,21.12H6.35a2.17,2.17,0,0,1-1.75-.77,2.6,2.6,0,0,1-.77-1.76V7.29A2.19,2.19,0,0,1,4.6,5.53a2.57,2.57,0,0,1,1.75-.77h5.71a.77.77,0,0,1,0,1.54H6.35a.75.75,0,0,0-.77.77V18.48a.75.75,0,0,0,.77.77H17.77a.75.75,0,0,0,.77-.77V13a.74.74,0,0,1,.77-.76.74.74,0,0,1,.76.76V18.7a2.18,2.18,0,0,1-.76,1.76A1.71,1.71,0,0,1,17.77,21.12Z"/><path class="cls-1" d="M18.21,4.43a1.6,1.6,0,0,1,2.41,0,1.77,1.77,0,0,1,.55,1.21,1.77,1.77,0,0,1-.55,1.21l-7.68,7.68-3.29.77L10.41,12Z"/></svg>