<svg width="25" height="25" viewBox="0 0 25 25" fill="none" xmlns="http://www.w3.org/2000/svg">
<path d="M22.0238 25H2.97619C1.28968 25 0 23.7103 0 22.0238V2.97619C0 1.28968 1.28968 0 2.97619 0H22.0238C23.7103 0 25 1.28968 25 2.97619V22.0238C25 23.7103 23.7103 25 22.0238 25Z" fill="#1D4E89"/>
<path d="M13.5 10H18V9.414C18.0001 9.27535 17.9809 9.13737 17.943 9.004L17.942 9C17.8717 8.75588 17.7407 8.5336 17.561 8.354L13.646 4.439C13.3648 4.15798 12.9835 4.00008 12.586 4H8C7.46957 4 6.96086 4.21071 6.58579 4.58579C6.21071 4.96086 6 5.46957 6 6V18C6 18.5304 6.21071 19.0391 6.58579 19.4142C6.96086 19.7893 7.46957 20 8 20H10.221L10.208 19.974C10.0523 19.6741 9.98138 19.3373 10.003 19H8C7.73478 19 7.48043 18.8946 7.29289 18.7071C7.10536 18.5196 7 18.2652 7 18V6C7 5.73478 7.10536 5.48043 7.29289 5.29289C7.48043 5.10536 7.73478 5 8 5H12V8.5C12 8.89782 12.158 9.27936 12.4393 9.56066C12.7206 9.84196 13.1022 10 13.5 10ZM13.5 9C13.3674 9 13.2402 8.94732 13.1464 8.85355C13.0527 8.75979 13 8.63261 13 8.5V5.207L16.793 9H13.5Z" fill="white"/>
<path d="M16.8099 11.548C16.9831 11.3722 17.1894 11.2324 17.4169 11.1366C17.6443 11.0409 17.8885 10.9912 18.1353 10.9902C18.3821 10.9893 18.6266 11.0373 18.8548 11.1313C19.083 11.2254 19.2903 11.3637 19.4647 11.5382C19.6392 11.7127 19.7774 11.9201 19.8714 12.1483C19.9653 12.3765 20.0132 12.621 20.0122 12.8678C20.0112 13.1146 19.9613 13.3588 19.8655 13.5862C19.7697 13.8136 19.6298 14.0199 19.4539 14.193L14.6239 19.022C14.3426 19.3035 13.99 19.5033 13.6039 19.6L12.1059 19.974C11.957 20.0111 11.801 20.0091 11.653 19.9681C11.5051 19.9271 11.3703 19.8485 11.2617 19.74C11.1531 19.6315 11.0744 19.4968 11.0333 19.3489C10.9921 19.201 10.99 19.045 11.0269 18.896L11.4019 17.398C11.4979 17.012 11.6979 16.658 11.9799 16.378L16.8099 11.548Z" fill="white"/>
</svg>
