<svg width="20" height="20" viewBox="0 0 20 20" fill="none" xmlns="http://www.w3.org/2000/svg">
<path d="M5.75714 11.3429C5.97706 11.3964 6.20227 11.4251 6.42857 11.4286C6.99597 11.4284 7.55048 11.2593 8.02143 10.9429L10.3214 12.9929C10.1392 13.3388 10.0323 13.7195 10.0077 14.1097C9.98306 14.5 10.0413 14.891 10.1786 15.2571C10.3228 15.672 10.5606 16.048 10.8737 16.356C11.1869 16.664 11.5667 16.8957 11.9839 17.033C12.4011 17.1704 12.8443 17.2097 13.2791 17.1479C13.714 17.0861 14.1287 16.925 14.4911 16.6769C14.8536 16.4288 15.1539 16.1006 15.3689 15.7176C15.5839 15.3346 15.7076 14.9072 15.7306 14.4686C15.7536 14.03 15.6751 13.592 15.5013 13.1886C15.3275 12.7853 15.0631 12.4274 14.7286 12.1429L16.5429 8.50714C16.897 8.58701 17.2636 8.59466 17.6207 8.52961C17.9779 8.46456 18.3182 8.32817 18.6214 8.12857C19.1364 7.81431 19.5386 7.34514 19.7706 6.78825C20.0025 6.23137 20.0522 5.61537 19.9126 5.02849C19.773 4.44162 19.4512 3.91399 18.9934 3.52121C18.5355 3.12842 17.9651 2.89064 17.3638 2.84192C16.7625 2.7932 16.1612 2.93605 15.6461 3.25C15.131 3.56395 14.7284 4.03289 14.4962 4.58963C14.2639 5.14638 14.2138 5.76235 14.3531 6.34931C14.4923 6.93627 14.8138 7.46409 15.2714 7.85714L13.4571 11.4929C13.2601 11.4495 13.0589 11.428 12.8571 11.4286C12.2897 11.4287 11.7352 11.5978 11.2643 11.9143L8.96429 9.86429C9.14649 9.5183 9.25341 9.13768 9.27803 8.74743C9.30265 8.35718 9.24441 7.96614 9.10714 7.6C8.96402 7.18816 8.72854 6.81454 8.41875 6.50775C8.10895 6.20096 7.73305 5.96914 7.31983 5.83004C6.90661 5.69095 6.46704 5.64827 6.03479 5.70527C5.60253 5.76227 5.18905 5.91744 4.82602 6.1589C4.46299 6.40036 4.16003 6.7217 3.94035 7.09831C3.72067 7.47492 3.5901 7.89682 3.55863 8.33168C3.52716 8.76654 3.59564 9.20284 3.75881 9.60715C3.92197 10.0115 4.17551 10.3731 4.5 10.6643L1.42857 16.4286V0H0V18.5714C0 18.9503 0.15051 19.3137 0.418419 19.5816C0.686328 19.8495 1.04969 20 1.42857 20H20V18.5714H1.90714L5.75714 11.3429ZM17.1429 4.28571C17.4254 4.28571 17.7016 4.3695 17.9365 4.52647C18.1715 4.68345 18.3546 4.90656 18.4627 5.1676C18.5708 5.42863 18.5991 5.71587 18.544 5.99299C18.4889 6.2701 18.3528 6.52465 18.153 6.72444C17.9532 6.92423 17.6987 7.06029 17.4216 7.11541C17.1444 7.17053 16.8572 7.14224 16.5962 7.03411C16.3351 6.92599 16.112 6.74288 15.955 6.50796C15.7981 6.27303 15.7143 5.99683 15.7143 5.71429C15.7143 5.33541 15.8648 4.97204 16.1327 4.70413C16.4006 4.43622 16.764 4.28571 17.1429 4.28571V4.28571ZM14.2857 14.2857C14.2857 14.5683 14.2019 14.8445 14.045 15.0794C13.888 15.3143 13.6649 15.4974 13.4038 15.6055C13.1428 15.7137 12.8556 15.742 12.5784 15.6868C12.3013 15.6317 12.0468 15.4957 11.847 15.2959C11.6472 15.0961 11.5111 14.8415 11.456 14.5644C11.4009 14.2873 11.4292 14.0001 11.5373 13.739C11.6454 13.478 11.8285 13.2549 12.0635 13.0979C12.2984 12.9409 12.5746 12.8571 12.8571 12.8571C13.236 12.8571 13.5994 13.0077 13.8673 13.2756C14.1352 13.5435 14.2857 13.9068 14.2857 14.2857ZM6.42857 7.14286C6.71112 7.14286 6.98732 7.22664 7.22224 7.38362C7.45717 7.54059 7.64027 7.7637 7.7484 8.02474C7.85652 8.28578 7.88482 8.57301 7.82969 8.85013C7.77457 9.12724 7.63851 9.38179 7.43872 9.58158C7.23893 9.78137 6.98439 9.91743 6.70727 9.97255C6.43016 10.0277 6.14292 9.99938 5.88188 9.89126C5.62084 9.78313 5.39773 9.60003 5.24076 9.3651C5.08378 9.13017 5 8.85397 5 8.57143C5 8.19255 5.15051 7.82919 5.41842 7.56128C5.68633 7.29337 6.04969 7.14286 6.42857 7.14286V7.14286Z" fill="white"/>
</svg>
