<svg id="圖層_1" data-name="圖層 1" xmlns="http://www.w3.org/2000/svg" viewBox="0 0 20 17.5"><title>sliders-h-solid</title><path d="M17.24,12.61H7.1v-.48a.47.47,0,0,0-.48-.48h-1a.48.48,0,0,0-.48.48v.48H2.76a.49.49,0,0,0-.49.49v1a.48.48,0,0,0,.49.48H5.17V15a.49.49,0,0,0,.48.48h1A.48.48,0,0,0,7.1,15v-.49H17.24a.48.48,0,0,0,.49-.48v-1A.49.49,0,0,0,17.24,12.61Zm0-4.83H14.83V7.3a.49.49,0,0,0-.48-.48h-1a.48.48,0,0,0-.48.48v.48H2.76a.49.49,0,0,0-.49.49v1a.49.49,0,0,0,.49.49H12.9v.48a.48.48,0,0,0,.48.48h1a.49.49,0,0,0,.48-.48V9.72h2.41a.49.49,0,0,0,.49-.49v-1A.49.49,0,0,0,17.24,7.78Zm0-4.82H11V2.47A.49.49,0,0,0,10.48,2h-1A.49.49,0,0,0,9,2.47V3H2.76a.48.48,0,0,0-.49.48v1a.49.49,0,0,0,.49.49H9v.48a.48.48,0,0,0,.49.48h1A.48.48,0,0,0,11,5.37V4.89h6.27a.49.49,0,0,0,.49-.49v-1A.48.48,0,0,0,17.24,3Z" style="fill:#fff"/></svg>