<svg width="25" height="25" viewBox="0 0 25 25" fill="none" xmlns="http://www.w3.org/2000/svg">
<path d="M22.0238 25H2.97619C1.28968 25 0 23.7103 0 22.0238V2.97619C0 1.28968 1.28968 0 2.97619 0H22.0238C23.7103 0 25 1.28968 25 2.97619V22.0238C25 23.7103 23.7103 25 22.0238 25Z" fill="#FE7225"/>
<path d="M19.8019 14.0337L18.6436 13.0337C18.6984 12.6944 18.7267 12.3479 18.7267 12.0014C18.7267 11.655 18.6984 11.3085 18.6436 10.9692L19.8019 9.96916C19.8893 9.89363 19.9518 9.79304 19.9812 9.68075C20.0106 9.56846 20.0054 9.4498 19.9664 9.34055L19.9505 9.29412C19.6316 8.3941 19.1541 7.55977 18.541 6.83145L18.5092 6.79394C18.4348 6.70564 18.3357 6.64216 18.2249 6.61187C18.1141 6.58159 17.9968 6.58592 17.8885 6.62429L16.4507 7.1404C15.9202 6.70108 15.3278 6.35463 14.6876 6.11175L14.4099 4.59379C14.389 4.47957 14.3341 4.37449 14.2526 4.29252C14.1711 4.21054 14.0669 4.15554 13.9537 4.13483L13.9059 4.1259C12.9846 3.95803 12.0154 3.95803 11.0941 4.1259L11.0463 4.13483C10.9331 4.15554 10.8289 4.21054 10.7474 4.29252C10.6659 4.37449 10.611 4.47957 10.5901 4.59379L10.3107 6.1189C9.67559 6.36182 9.08418 6.70809 8.55989 7.14397L7.11153 6.62429C7.00324 6.58561 6.88586 6.58113 6.77499 6.61143C6.66411 6.64173 6.565 6.70539 6.49081 6.79394L6.45897 6.83145C5.84664 7.56029 5.36921 8.39448 5.04952 9.29412L5.0336 9.34055C4.95402 9.56378 5.01946 9.8138 5.19807 9.96916L6.37055 10.9799C6.31573 11.3157 6.2892 11.6586 6.2892 11.9997C6.2892 12.3425 6.31573 12.6854 6.37055 13.0194L5.19807 14.0302C5.1107 14.1057 5.04817 14.2063 5.01879 14.3186C4.98941 14.4309 4.99458 14.5495 5.0336 14.6588L5.04952 14.7052C5.36961 15.6053 5.84355 16.4357 6.45897 17.1679L6.49081 17.2054C6.56518 17.2937 6.6643 17.3572 6.77511 17.3875C6.88592 17.4177 7.00321 17.4134 7.11153 17.375L8.55989 16.8554C9.08689 17.2929 9.67579 17.6393 10.3107 17.8804L10.5901 19.4055C10.611 19.5198 10.6659 19.6248 10.7474 19.7068C10.8289 19.7888 10.9331 19.8438 11.0463 19.8645L11.0941 19.8734C12.0239 20.0422 12.9761 20.0422 13.9059 19.8734L13.9537 19.8645C14.0669 19.8438 14.1711 19.7888 14.2526 19.7068C14.3341 19.6248 14.389 19.5198 14.4099 19.4055L14.6876 17.8876C15.3275 17.6453 15.9233 17.2978 16.4507 16.8589L17.8885 17.375C17.9968 17.4137 18.1141 17.4182 18.225 17.3879C18.3359 17.3576 18.435 17.2939 18.5092 17.2054L18.541 17.1679C19.1564 16.4339 19.6304 15.6053 19.9505 14.7052L19.9664 14.6588C20.046 14.4391 19.9805 14.1891 19.8019 14.0337ZM17.388 11.18C17.4322 11.4496 17.4552 11.7264 17.4552 12.0032C17.4552 12.28 17.4322 12.5568 17.388 12.8265L17.2713 13.5426L18.5923 14.6838C18.392 15.1497 18.1393 15.5907 17.839 15.9982L16.1978 15.4106L15.6425 15.8714C15.2199 16.2214 14.7495 16.4964 14.2402 16.6893L13.5664 16.9446L13.2498 18.6769C12.7504 18.7341 12.2461 18.7341 11.7466 18.6769L11.4301 16.9411L10.7616 16.6821C10.2576 16.4893 9.78897 16.2142 9.36984 15.866L8.81455 15.4035L7.16282 15.9964C6.86218 15.5874 6.61106 15.1463 6.40946 14.682L7.74464 13.5301L7.62969 12.8158C7.58725 12.5497 7.56426 12.2747 7.56426 12.0032C7.56426 11.73 7.58548 11.4568 7.62969 11.1907L7.74464 10.4763L6.40946 9.32448C6.60929 8.85837 6.86218 8.41906 7.16282 8.0101L8.81455 8.603L9.36984 8.14047C9.78897 7.79223 10.2576 7.51721 10.7616 7.32434L11.4319 7.06896L11.7484 5.33313C12.2453 5.27598 12.7529 5.27598 13.2516 5.33313L13.5681 7.06539L14.2419 7.32077C14.7495 7.51364 15.2216 7.78866 15.6443 8.13868L16.1996 8.59943L17.8407 8.01189C18.1414 8.42084 18.3925 8.86194 18.5941 9.32626L17.273 10.4674L17.388 11.18ZM12.5018 8.68157C10.7828 8.68157 9.3893 10.0888 9.3893 11.8247C9.3893 13.5605 10.7828 14.9677 12.5018 14.9677C14.2207 14.9677 15.6142 13.5605 15.6142 11.8247C15.6142 10.0888 14.2207 8.68157 12.5018 8.68157ZM13.9024 13.239C13.7187 13.4251 13.5004 13.5726 13.26 13.6731C13.0196 13.7737 12.7619 13.8252 12.5018 13.8248C11.973 13.8248 11.4761 13.6158 11.1012 13.239C10.9169 13.0535 10.7708 12.8331 10.6713 12.5903C10.5717 12.3476 10.5207 12.0874 10.5211 11.8247C10.5211 11.2907 10.728 10.7889 11.1012 10.4103C11.4761 10.0317 11.973 9.82451 12.5018 9.82451C13.0305 9.82451 13.5275 10.0317 13.9024 10.4103C14.0866 10.5958 14.2327 10.8162 14.3323 11.059C14.4318 11.3017 14.4828 11.5619 14.4824 11.8247C14.4824 12.3586 14.2755 12.8604 13.9024 13.239Z" fill="white"/>
</svg>
