<svg id="圖層_1" data-name="圖層 1" xmlns="http://www.w3.org/2000/svg" viewBox="0 0 44 44"><defs><style>.cls-1{fill:#a1b630;}.cls-2{fill:#fff;}</style></defs><rect class="cls-1" width="44" height="44" rx="3"/><path class="cls-2" d="M13.1,32.88H30.9a1,1,0,0,1,.67.25,1.06,1.06,0,0,1,.32.65,1,1,0,0,1-.2.68,1,1,0,0,1-.61.38h-18a1,1,0,0,1-.67-.25,1.06,1.06,0,0,1-.32-.65,1,1,0,0,1,.2-.68,1,1,0,0,1,.61-.38ZM21.82,9.16H22a1,1,0,0,1,.63.23A.94.94,0,0,1,23,10l0,.17V27.52l5.3-5.3a1,1,0,0,1,.61-.29,1,1,0,0,1,.65.17l.14.12a1,1,0,0,1,.29.61,1,1,0,0,1-.17.65l-.12.14-7,7a1.06,1.06,0,0,1-.61.29,1,1,0,0,1-.65-.18l-.14-.11-7-7A1,1,0,0,1,14,23a1,1,0,0,1,.23-.68,1,1,0,0,1,.62-.34,1,1,0,0,1,.7.16l.14.12,5.3,5.3V10.13a1,1,0,0,1,.23-.63,1,1,0,0,1,.58-.34h0Z"/></svg>