<svg width="25" height="25" viewBox="0 0 25 25" fill="none" xmlns="http://www.w3.org/2000/svg">
<path d="M22.0238 25H2.97619C1.28968 25 0 23.7103 0 22.0238V2.97619C0 1.28968 1.28968 0 2.97619 0H22.0238C23.7103 0 25 1.28968 25 2.97619V22.0238C25 23.7103 23.7103 25 22.0238 25Z" fill="#A1B630"/>
<path d="M12.7001 20.4C16.9524 20.4 20.4002 16.9523 20.4002 12.7C20.4002 8.4477 16.9524 5 12.7001 5C8.44777 5 5 8.4477 5 12.7C5 16.9523 8.44777 20.4 12.7001 20.4Z" stroke="white" stroke-width="2" stroke-miterlimit="10"/>
<path d="M21.3536 20.7464L17.7535 17.1464L17.4 17.5L17.0464 17.8536L20.6465 21.4536L21 21.1L21.3536 20.7464Z" stroke="white" stroke-miterlimit="10"/>
</svg>
