<svg width="10" height="9" viewBox="0 0 10 9" fill="none" xmlns="http://www.w3.org/2000/svg">
<path fill-rule="evenodd" clip-rule="evenodd" d="M5.18196 0.183596C5.24001 0.125399 5.30898 0.0792252 5.3849 0.0477207C5.46082 0.0162162 5.54221 0 5.62441 0C5.70661 0 5.78801 0.0162162 5.86393 0.0477207C5.93985 0.0792252 6.00881 0.125399 6.06687 0.183596L9.81645 3.93318C9.87464 3.99123 9.92082 4.06019 9.95232 4.13611C9.98383 4.21204 10 4.29343 10 4.37563C10 4.45783 9.98383 4.53922 9.95232 4.61514C9.92082 4.69107 9.87464 4.76003 9.81645 4.81808L6.06687 8.56766C5.94952 8.68501 5.79037 8.75093 5.62441 8.75093C5.45846 8.75093 5.29931 8.68501 5.18196 8.56766C5.06462 8.45032 4.99869 8.29116 4.99869 8.12521C4.99869 7.95926 5.06462 7.8001 5.18196 7.68276L8.49034 4.37563L5.18196 1.0685C5.12377 1.01045 5.07759 0.941485 5.04609 0.865562C5.01458 0.78964 4.99837 0.708247 4.99837 0.626047C4.99837 0.543847 5.01458 0.462455 5.04609 0.386532C5.07759 0.310609 5.12377 0.241647 5.18196 0.183596Z" fill="#1D1A31"/>
<path fill-rule="evenodd" clip-rule="evenodd" d="M0 4.37566C0 4.20992 0.0658408 4.05097 0.183038 3.93377C0.300235 3.81657 0.459188 3.75073 0.62493 3.75073H8.74902C8.91476 3.75073 9.07372 3.81657 9.19092 3.93377C9.30811 4.05097 9.37395 4.20992 9.37395 4.37566C9.37395 4.5414 9.30811 4.70036 9.19092 4.81756C9.07372 4.93475 8.91476 5.00059 8.74902 5.00059H0.62493C0.459188 5.00059 0.300235 4.93475 0.183038 4.81756C0.0658408 4.70036 0 4.5414 0 4.37566Z" fill="#1D1A31"/>
</svg>
