<svg width="31" height="31" viewBox="0 0 31 31" fill="none" xmlns="http://www.w3.org/2000/svg">
<path d="M30.0011 15.0005C30.0011 6.71596 23.2851 -1.46077e-05 15.0006 -1.42456e-05C6.71598 -1.38834e-05 8.89523e-07 6.71596 1.25165e-06 15.0005C1.61378e-06 23.2851 6.71598 30.0011 15.0006 30.0011C23.2851 30.0011 30.0011 23.2851 30.0011 15.0005Z" fill="#1D1A31"/>
<path d="M14.8 14.6011C17.451 14.6011 19.6 12.4521 19.6 9.8011C19.6 7.15013 17.451 5.0011 14.8 5.0011C12.149 5.0011 10 7.15013 10 9.8011C10 12.4521 12.149 14.6011 14.8 14.6011Z" fill="white"/>
<path d="M18.7 14.7011C18.5 14.6011 18.3 14.7011 18.2 14.9011C17.5 16.1011 16.2 16.9011 14.8 16.9011C13.4 16.9011 12.1 16.2011 11.4 14.9011C11.3 14.7011 11.1 14.6011 10.9 14.7011C7.3 16.3011 5 19.8011 5 23.8011C5 24.0011 5.2 24.2011 5.4 24.2011H24.3C24.5 24.2011 24.7 24.0011 24.7 23.8011C24.7 19.8011 22.3 16.3011 18.7 14.7011Z" fill="white"/>
</svg>
