<svg width="25" height="25" viewBox="0 0 25 25" fill="none" xmlns="http://www.w3.org/2000/svg">
<path d="M22.0238 25H2.97619C1.28968 25 0 23.7103 0 22.0238V2.97619C0 1.28968 1.28968 0 2.97619 0H22.0238C23.7103 0 25 1.28968 25 2.97619V22.0238C25 23.6111 23.7103 25 22.0238 25Z" fill="#1D4E89"/>
<path d="M10.0199 4.26587V5.15873H5.35716V7.04365H6.25004V18.9484C6.25004 19.4444 6.44846 19.9405 6.74608 20.2381C7.04369 20.5357 7.53971 20.7341 8.03575 20.7341H17.2619C17.758 20.7341 18.254 20.5357 18.5516 20.2381C18.8492 19.9405 19.0476 19.4444 19.0476 18.9484V7.04365H19.9405V5.15873H15.377V4.26587H10.0199ZM8.13493 6.94444H17.3611V18.8492H8.13493V6.94444ZM10.0199 8.82936V17.0635H11.9048V8.82936H10.0199ZM13.6905 8.82936V17.0635H15.5754V8.82936H13.6905Z" fill="white"/>
</svg>
