<svg width="20" height="22" viewBox="0 0 20 22" fill="none" xmlns="http://www.w3.org/2000/svg">
<path d="M0.86 1.80007L13.43 0.0050667C13.5009 -0.00510991 13.5732 8.245e-05 13.642 0.0202919C13.7108 0.0405013 13.7744 0.0752555 13.8285 0.122199C13.8827 0.169143 13.9261 0.227179 13.9559 0.292374C13.9856 0.357569 14.001 0.4284 14.001 0.500067V21.3461C14.001 21.4176 13.9856 21.4884 13.9559 21.5535C13.9262 21.6186 13.8829 21.6766 13.8288 21.7235C13.7748 21.7704 13.7113 21.8052 13.6427 21.8255C13.5741 21.8458 13.5019 21.8511 13.431 21.8411L0.859 20.0461C0.620619 20.0121 0.402492 19.8933 0.244689 19.7114C0.0868852 19.5296 2.31057e-06 19.2969 0 19.0561V2.79007C2.31057e-06 2.54928 0.0868852 2.31658 0.244689 2.13471C0.402492 1.95284 0.620619 1.83402 0.859 1.80007H0.86ZM15.001 1.92307H19.001C19.2662 1.92307 19.5206 2.02842 19.7081 2.21596C19.8956 2.4035 20.001 2.65785 20.001 2.92307V18.9231C20.001 19.1883 19.8956 19.4426 19.7081 19.6302C19.5206 19.8177 19.2662 19.9231 19.001 19.9231H15.001V1.92307ZM8.201 10.9231L11.001 6.92307H8.601L7.001 9.20907L5.401 6.92307H3.001L5.801 10.9231L3.001 14.9231H5.401L7.001 12.6371L8.601 14.9231H11.001L8.201 10.9231Z" fill="#5D913C"/>
</svg>
