<svg width="25" height="25" viewBox="0 0 25 25" fill="none" xmlns="http://www.w3.org/2000/svg">
<path d="M22.0238 25H2.97619C1.28968 25 0 23.7103 0 22.0238V2.97619C0 1.28968 1.28968 0 2.97619 0H22.0238C23.7103 0 25 1.28968 25 2.97619V22.0238C25 23.6111 23.7103 25 22.0238 25Z" fill="#1D4E89"/>
<path d="M19.4545 6H5.54545C4.69545 6 4 6.7 4 7.55556V16.8889C4 17.7444 4.69545 18.4444 5.54545 18.4444H9.40909V19.2222C9.40909 19.65 9.75682 20 10.1818 20H14.8182C15.2432 20 15.5909 19.65 15.5909 19.2222V18.4444H19.4545C20.3045 18.4444 20.9923 17.7444 20.9923 16.8889L21 7.55556C21 7.143 20.8372 6.74733 20.5473 6.45561C20.2575 6.16389 19.8644 6 19.4545 6ZM18.6818 16.8889H6.31818C5.89318 16.8889 5.54545 16.5389 5.54545 16.1111V8.33333C5.54545 7.90556 5.89318 7.55556 6.31818 7.55556H18.6818C19.1068 7.55556 19.4545 7.90556 19.4545 8.33333V16.1111C19.4545 16.5389 19.1068 16.8889 18.6818 16.8889ZM14.4164 12.8989L11.3409 14.6722C10.8232 14.9678 10.1818 14.5867 10.1818 13.9956V10.4489C10.1818 9.85 10.8232 9.47667 11.3409 9.77222L14.4164 11.5456C14.9341 11.8489 14.9341 12.5956 14.4164 12.8989Z" fill="white"/>
</svg>
